<svg width="18" height="20" viewBox="0 0 18 20" fill="none" xmlns="http://www.w3.org/2000/svg">
<path d="M17.1296 10.1148L1.16998 19.0692C1.05661 19.1327 0.924888 19.1691 0.788859 19.1746C0.65283 19.1801 0.517582 19.1544 0.397521 19.1003C0.277461 19.0462 0.177084 18.9657 0.107081 18.8674C0.0370774 18.7691 7.03501e-05 18.6566 0 18.542V0.633296C7.03501e-05 0.518684 0.0370774 0.406233 0.107081 0.307922C0.177084 0.209611 0.277461 0.12912 0.397521 0.0750225C0.517582 0.0209253 0.65283 -0.00475263 0.788859 0.000723891C0.924888 0.00620042 1.05661 0.0426265 1.16998 0.106122L17.1296 9.06048C17.2327 9.11835 17.3173 9.19674 17.3757 9.2887C17.4342 9.38066 17.4648 9.48335 17.4648 9.58766C17.4648 9.69196 17.4342 9.79465 17.3757 9.88661C17.3173 9.97857 17.2327 10.057 17.1296 10.1148Z" fill="white"/>
</svg>
